<svg width="561" height="561" xmlns="http://www.w3.org/2000/svg" xmlns:xlink="http://www.w3.org/1999/xlink" xml:space="preserve" overflow="hidden"><defs><clipPath id="clip0"><rect x="445" y="50" width="561" height="561"/></clipPath></defs><g clip-path="url(#clip0)" transform="translate(-445 -50)"><path d="M863.997 379.587 852.309 260.959C849.387 231.741 826.012 209.534 796.794 208.366L796.794 153.434 803.222 158.694C804.391 159.862 806.144 159.278 807.312 158.109 807.897 157.525 807.897 156.941 807.897 156.356 812.572 118.372 800.3 90.9062 777.509 83.3094 774.588 82.1406 771.666 81.5563 768.744 81.5563L772.25 76.8812C773.419 75.7125 773.419 73.9594 771.666 72.7906 771.666 72.7906 771.666 72.7906 771.081 72.2063 763.484 68.1156 754.134 68.7 747.706 74.5437 738.356 66.3625 725.5 61.6875 712.644 61.6875 673.491 61.6875 640.181 89.1531 632.584 127.722 632.584 129.475 633.169 130.644 634.922 131.228 635.506 131.228 635.506 131.228 636.091 131.228L648.947 128.306C641.934 138.241 638.428 150.513 639.013 162.2 639.013 163.953 640.766 165.122 641.934 165.122 642.519 165.122 643.103 165.122 643.688 164.538L649.531 160.447 649.531 208.95C622.65 212.456 601.028 234.078 598.691 260.959L587.003 379.587C585.25 395.95 592.263 412.312 604.534 422.831L625.572 440.947 625.572 473.672C625.572 482.438 632 490.034 640.766 491.203L643.103 491.788 643.103 543.213C625.572 548.472 613.884 564.25 613.884 582.366L613.884 588.209C613.884 594.638 619.144 599.897 625.572 599.897L701.541 599.897C707.969 599.897 712.644 595.222 713.228 588.794L719.072 502.306 731.344 504.059 737.188 588.794C737.772 594.638 742.447 599.897 748.875 599.897L824.844 599.897C831.272 599.897 836.531 594.638 836.531 588.209L836.531 582.366C836.531 564.25 824.844 548.472 807.312 543.213L807.312 515.162C817.247 515.162 824.844 507.566 824.844 497.631 824.844 497.631 824.844 497.631 824.844 497.631L824.844 440.947 845.881 422.831C858.738 411.728 865.166 395.95 863.997 379.587ZM737.772 113.113 735.434 137.656C735.434 139.409 736.603 140.578 737.772 140.578 738.356 140.578 738.941 140.578 739.525 139.994L761.731 126.553 761.731 145.253C761.731 166.291 744.2 183.822 723.162 183.822 702.125 184.406 684.594 166.875 684.594 145.837L684.594 134.15 707.969 117.203 707.969 129.475C707.969 131.228 709.138 132.397 710.891 132.397 711.475 132.397 712.059 132.397 712.644 131.812L737.772 113.113ZM610.378 381.341 622.066 262.713C623.819 244.597 639.013 231.156 657.128 231.156L672.906 231.156C688.684 231.156 702.125 220.637 706.216 205.444 718.487 208.95 731.928 208.366 744.2 203.691 745.953 212.456 751.213 220.053 758.809 224.728 751.213 258.622 719.656 274.984 672.906 277.322 672.906 270.894 667.647 265.634 661.219 265.634 661.219 265.634 660.634 265.634 660.634 265.634 654.791 266.219 650.7 270.894 650.116 276.153L638.428 374.913C637.844 377.834 639.013 380.756 640.766 383.094L653.622 400.625 649.531 407.638C649.531 407.638 647.194 411.728 647.194 411.728L647.194 411.728C644.856 415.819 639.597 417.572 635.506 415.819 634.922 415.234 634.338 415.234 633.753 414.65L620.897 403.547C613.3 398.872 609.794 390.691 610.378 381.341ZM691.022 575.938 638.428 575.938C640.766 568.925 647.778 564.25 654.791 564.25 661.219 564.25 666.478 558.991 666.478 552.562L666.478 494.125 695.697 498.216 691.022 575.938ZM811.987 575.938 759.394 575.938 754.719 506.981 783.938 511.656 783.938 552.562C783.938 558.991 789.197 564.25 795.625 564.25 803.222 564.25 809.65 568.925 811.987 575.938ZM831.272 404.716 818.416 415.819C814.909 418.741 809.066 418.741 806.144 414.65 805.559 414.066 805.559 413.481 804.975 412.897L804.975 412.897 804.975 412.312 798.547 401.209 811.403 383.678C813.156 381.341 813.741 378.419 813.741 375.497L803.806 290.763 803.806 289.009C799.131 259.791 799.131 245.181 819 241.091 824.844 246.934 828.35 254.531 829.519 262.713L841.206 381.341C841.206 390.691 837.7 398.872 831.272 404.716Z"/></g></svg>