<svg width="561" height="561" xmlns="http://www.w3.org/2000/svg" xmlns:xlink="http://www.w3.org/1999/xlink" xml:space="preserve" overflow="hidden"><defs><clipPath id="clip0"><rect x="640" y="71" width="561" height="561"/></clipPath></defs><g clip-path="url(#clip0)" transform="translate(-640 -71)"><path d="M1031.53 556.189 1031.53 536.507 1036.05 537.022C1042.47 537.751 1048.26 533.143 1048.99 526.729 1049.04 526.291 1049.06 525.851 1049.06 525.41L1049.06 461.07 1049.45 460.772C1067.63 447.136 1078.08 425.546 1077.5 402.832L1074.7 296.294C1073.52 249.473 1039.72 209.874 993.67 201.345L993.67 188.039 1003.67 192.316C1005.18 192.953 1006.92 192.248 1007.56 190.741 1007.66 190.498 1007.73 190.241 1007.76 189.979 1009.17 179.495 1003.72 167.463 994.096 156.342L1011.5 147.641C1012.82 146.99 1013.45 145.458 1012.97 144.064 1007.95 131.208 993.74 125.411 977.997 128.976L977.704 108.301C977.707 106.687 976.401 105.377 974.787 105.374 974.731 105.374 974.675 105.376 974.619 105.379 968.294 106.008 962.294 108.481 957.362 112.491 950.499 94.3448 933.015 82.4333 913.616 82.6875 875.141 82.6875 830.255 120.584 821.916 160.199 821.623 161.786 822.672 163.31 824.258 163.603 824.644 163.674 825.039 163.667 825.422 163.583L845.355 159.299C839.052 168.013 835.17 178.242 834.106 188.944 833.952 190.57 835.146 192.013 836.771 192.167 837.258 192.212 837.747 192.137 838.197 191.948L847.336 188.039 847.336 201.69C802.15 210.992 769.313 250.177 768.06 296.294L765.261 402.832C764.72 424.902 774.604 445.938 791.938 459.609L791.938 498.827C791.932 504.775 796.395 509.778 802.304 510.45L811.21 511.461 811.21 556.177C783.849 558.352 762.745 581.177 762.719 608.625 762.719 615.08 767.951 620.312 774.406 620.312L869.659 620.312C875.317 620.314 880.164 616.262 881.166 610.694L896.944 523.037C897.034 522.44 897.081 521.836 897.084 521.232L946.481 526.842 961.587 610.694C962.589 616.262 967.436 620.314 973.094 620.312L1068.35 620.312C1074.8 620.312 1080.03 615.08 1080.03 608.625 1080 581.177 1058.89 558.358 1031.53 556.189ZM1054.12 403.445C1054.5 418.593 1047.53 432.991 1035.42 442.09L1033.75 443.346C1029.28 446.702 1022.93 445.798 1019.58 441.327 1019.21 440.84 1018.89 440.32 1018.62 439.776 1018.4 439.341 1018.16 438.922 1017.89 438.519L1009.96 426.627 1018.61 409.353C1019.72 407.144 1020.09 404.642 1019.69 402.206L1007.61 329.446C1007.61 329.399 1007.61 329.352 1007.57 329.311 1002.48 297.282 1017.04 268.729 1043.06 264.37 1048.21 274.464 1051.03 285.582 1051.32 296.908ZM885.438 171.729 885.438 186.25C885.436 187.864 886.742 189.174 888.356 189.176 889.177 189.177 889.961 188.832 890.516 188.226L914.656 161.812 912.208 198.306C912.1 199.916 913.319 201.309 914.929 201.416 915.71 201.468 916.479 201.204 917.064 200.684L951.647 170.052 970.295 178.034 970.295 211.01C970.281 220.857 964.111 229.643 954.855 233L920.032 245.564 886.022 233.1C876.828 229.705 870.715 220.951 870.694 211.151L870.694 178.034ZM873.931 518.9 859.877 596.938 788.536 596.938C793.183 586.291 803.696 579.407 815.312 579.406L822.909 579.406C829.364 579.406 834.597 574.174 834.597 567.719L834.597 514.126 874.025 518.608C873.995 518.707 873.949 518.795 873.931 518.9ZM860.093 322.129 863.646 300.829C864.708 294.461 860.407 288.438 854.039 287.377 847.671 286.315 841.648 290.616 840.587 296.984L823.055 402.171C822.693 404.367 822.962 406.621 823.833 408.669L831.511 426.727 824.423 439.232C824.318 439.408 824.218 439.595 824.131 439.776 821.629 444.778 815.546 446.805 810.543 444.303 810.008 444.036 809.498 443.721 809.019 443.364L807.312 442.072C795.198 432.979 788.23 418.588 788.612 403.445L791.412 296.908C792.337 262.607 816.129 233.18 849.475 225.094 853.825 238.963 864.354 250.036 877.987 255.078L915.971 269.004C918.551 269.942 921.38 269.942 923.959 269.004L958.14 256.673C947.381 293.536 909.847 320.762 860.093 322.129ZM982.865 596.938 970.756 529.6 1008.16 533.854 1008.16 567.719C1008.16 574.174 1013.39 579.406 1019.84 579.406L1027.44 579.406C1039.05 579.417 1049.56 586.297 1054.22 596.938Z"/></g></svg>