<svg width="329" height="328" xmlns="http://www.w3.org/2000/svg" xmlns:xlink="http://www.w3.org/1999/xlink" xml:space="preserve" overflow="hidden"><defs><clipPath id="clip0"><rect x="361" y="80" width="329" height="328"/></clipPath></defs><g clip-path="url(#clip0)" transform="translate(-361 -80)"><path d="M273.333 225.5C273.155 216.94 269.141 208.912 262.4 203.633 247.367 191.333 228.233 183.133 209.1 177.667 194.482 173.192 179.287 170.89 164 170.833 148.73 171.097 133.563 173.395 118.9 177.667 99.7916 183.243 81.7687 192.023 65.6 203.633 58.8589 208.912 54.845 216.94 54.6667 225.5L54.6667 280.167 273.333 280.167Z" transform="matrix(1.00305 0 0 1 361 80)"/><path d="M153.75 87.9792C162.633 82.7517 184.5 65.8733 184.5 65.8733L184.5 65.8733C187.951 66.1723 191.234 67.4925 193.93 69.6658 200.492 74.2732 206.048 80.167 210.262 86.9883 214.054 92.66 217.3 97.2383 218.291 98.605L218.291 98.605 218.667 99.0833 218.667 99.0833C220.375 95.6667 220.307 86.1342 219.111 77.4558 217.437 65.4975 216.07 61.9442 208.417 55.5208 203.54 51.1014 197.032 48.9318 190.479 49.5417 181.588 42.6424 170.878 38.4867 159.661 37.5833 142.577 36.9683 123.923 45.8858 115.996 56.3408 104.003 72.0575 105.336 82.3075 105.336 85.9633 105.336 89.6192 101.133 95.9742 104.072 95.9742 105.985 95.9742 107.864 95.9742 109.778 95.9742L109.778 95.9742C120.608 95.6667 142.714 94.4708 153.75 87.9792Z" transform="matrix(1.00305 0 0 1 361 80)"/><path d="M213.268 103.081C213.098 102.842 209.339 97.6142 204.761 90.815 201.001 84.6483 196.011 79.3213 190.103 75.1667 188.953 74.3292 187.702 73.6404 186.379 73.1167 180.298 77.7292 164.649 89.4825 157.201 93.8217 145.379 100.655 123.82 102.466 109.368 102.773 109.742 132.963 134.519 157.132 164.708 156.758 191.672 156.424 214.365 136.476 218.154 109.778Z" transform="matrix(1.00305 0 0 1 361 80)"/></g></svg>