<svg width="328" height="328" xmlns="http://www.w3.org/2000/svg" xmlns:xlink="http://www.w3.org/1999/xlink" xml:space="preserve" overflow="hidden"><defs><clipPath id="clip0"><rect x="592" y="80" width="328" height="328"/></clipPath></defs><g clip-path="url(#clip0)" transform="translate(-592 -80)"><path d="M865.333 305.5C865.155 296.94 861.141 288.912 854.4 283.633 839.367 271.333 820.233 263.133 801.1 257.667 786.482 253.192 771.287 250.89 756 250.833 740.73 251.097 725.563 253.395 710.9 257.667 691.792 263.243 673.769 272.023 657.6 283.633 650.859 288.912 646.845 296.94 646.667 305.5L646.667 360.167 865.333 360.167Z"/><path d="M814.459 222.133C811.316 209.833 823.343 179.083 823.445 157.422 823.445 140.099 818.525 132.343 809.232 127.082 803.867 124.041 791.499 126.842 791.499 126.842 791.499 126.842 785.11 114.747 763.722 108.085 746.147 103.3 727.391 105.697 711.583 114.747 698.361 123.289 691.972 132.685 691.664 165.007 691.391 194.629 695.457 220.938 693.578 233.34 692.711 240.205 690.1 246.734 685.992 252.303 685.992 252.303 706.492 254.933 717.938 248.886 723.698 245.021 729.158 240.727 734.27 236.039 716.735 227.861 703.952 212.052 699.625 193.194 699.181 191.554 696.208 180.826 700.958 174.812 703.554 171.396 709.499 170.439 719.408 168.697 731.268 167.134 742.843 163.878 753.779 159.027 766.072 152.846 777.473 145.03 787.672 135.794 789.017 134.47 791.18 134.487 792.504 135.831 793.008 136.342 793.337 136.999 793.447 137.708 794.26 143.328 796.214 148.722 799.187 153.561 800.579 155.345 802.294 156.852 804.243 158.003 806.515 159.364 808.472 161.192 809.983 163.367 812.451 168.182 813.849 173.473 814.083 178.878 813.86 203.811 799.046 226.299 776.227 236.347 780.532 240.139 786.169 244.82 792.388 249.33 802.638 256.744 827.408 246.494 827.408 246.494 827.408 246.494 819.413 241.711 814.459 222.133Z"/><path d="M807.25 179.083C807.068 174.954 806.069 170.901 804.312 167.159 803.311 165.745 802.003 164.577 800.485 163.742 797.872 162.168 795.558 160.144 793.652 157.763 790.903 153.805 788.921 149.367 787.809 144.678 778.27 152.687 767.837 159.565 756.718 165.178 745.175 170.312 732.956 173.764 720.432 175.428 714.658 176.452 707.449 177.717 706.219 179.015 704.169 181.68 705.228 188.479 706.219 191.349 712.062 215.983 732.972 233.75 756 233.75 783.333 233.75 807.25 208.193 807.25 179.083Z"/></g></svg>